<svg xmlns="http://www.w3.org/2000/svg" viewBox="0 0 24 24">
  <symbol id="link-up" viewBox="0 0 24 24"><g fill="none" stroke="currentColor" stroke-width="2" stroke-linecap="round"><path d="M8.5 14.5 6 17a3.5 3.5 0 0 1-5-5l3-3a3.5 3.5 0 0 1 5 0"/><path d="m15.5 9.5 2.5-2.5a3.5 3.5 0 1 1 5 5l-3 3a3.5 3.5 0 0 1-5 0"/><path d="m8 16 8-8"/></g></symbol>
  <symbol id="voice" viewBox="0 0 24 24"><g fill="none" stroke="currentColor" stroke-width="2" stroke-linecap="round"><rect x="9" y="3" width="6" height="11" rx="3"/><path d="M6 11a6 6 0 0 0 12 0M12 17v4M9 21h6"/></g></symbol>
  <symbol id="call" viewBox="0 0 24 24"><path d="M7 3h3l2 5-2 2c1.3 2.7 3.3 4.7 6 6l2-2 5 2v3c0 1.1-.9 2-2 2C11.1 21 3 12.9 3 3c0-1.1.9-2 2-2Z" fill="none" stroke="currentColor" stroke-width="2" stroke-linejoin="round"/></symbol>
  <symbol id="face-up" viewBox="0 0 24 24"><g fill="none" stroke="currentColor" stroke-width="2"><rect x="3" y="4" width="18" height="16" rx="4"/><circle cx="12" cy="10" r="3"/><path d="M7.5 17c1.2-2.2 2.7-3 4.5-3s3.3.8 4.5 3"/></g></symbol>
  <symbol id="around-now" viewBox="0 0 24 24"><g fill="none" stroke="currentColor" stroke-width="2"><circle cx="12" cy="12" r="3"/><circle cx="12" cy="12" r="8" stroke-dasharray="5 4"/></g></symbol>
  <symbol id="live-spot" viewBox="0 0 24 24"><g fill="none" stroke="currentColor" stroke-width="2"><path d="M12 22s7-6 7-13a7 7 0 1 0-14 0c0 7 7 13 7 13Z"/><circle cx="12" cy="9" r="2.5"/></g></symbol>
  <symbol id="seen" viewBox="0 0 24 24"><g fill="none" stroke="currentColor" stroke-width="2"><path d="M2 12s3.5-5 10-5 10 5 10 5-3.5 5-10 5S2 12 2 12Z"/><circle cx="12" cy="12" r="2.5"/></g></symbol>
  <symbol id="motion" viewBox="0 0 24 24"><g fill="none" stroke="currentColor" stroke-width="2" stroke-linecap="round"><path d="M4 12h3l2-5 4 10 2-5h5"/><circle cx="4" cy="12" r="1" fill="currentColor" stroke="none"/><circle cx="20" cy="12" r="1" fill="currentColor" stroke="none"/></g></symbol>
  <symbol id="share" viewBox="0 0 24 24"><g fill="none" stroke="currentColor" stroke-width="2"><circle cx="18" cy="5" r="2.5"/><circle cx="6" cy="12" r="2.5"/><circle cx="18" cy="19" r="2.5"/><path d="m8.2 10.8 7.6-4.6M8.2 13.2l7.6 4.6"/></g></symbol>
  <symbol id="circle" viewBox="0 0 24 24"><g fill="none" stroke="currentColor" stroke-width="2"><circle cx="8" cy="9" r="3"/><circle cx="16" cy="9" r="3"/><path d="M3 19c.5-3.2 2.2-5 5-5 1.7 0 3 .7 4 2 1-1.3 2.3-2 4-2 2.8 0 4.5 1.8 5 5"/></g></symbol>
</svg>